# xmcd CD database file
#
# Track frame offsets:
#	150
#	22438
#	33508
#	47673
#	66485
#	82948
#	101193
#	112833
#	130233
#	145348
#	164510
#
# Disc length: 2447 seconds
#
# Revision: 0
# Processed by: cddbd v1.5PL3 Copyright (c) Steve Scherf et al.
# Submitted via: CDex 1.40Release
#
DISCID=9e098d0b
DTITLE=MIDGET - The Milgram Experiment
DYEAR=2001
DGENRE=Rock
TTITLE0=The Reflection Stared
TTITLE1=In the Head and of the Heart
TTITLE2=A Stranger to Myself
TTITLE3=Oil
TTITLE4=She's My Superstition
TTITLE5=She Never Drowned in the First Place
TTITLE6=Room without a View
TTITLE7=This Wonderful Failure
TTITLE8=The Danger inside Me
TTITLE9=Softly Dear Jane
TTITLE10=Monsieur Man Ray
EXTD=YEAR: 2001 ID3G: 17
EXTT0=
EXTT1=
EXTT2=
EXTT3=
EXTT4=
EXTT5=
EXTT6=
EXTT7=
EXTT8=
EXTT9=
EXTT10=
PLAYORDER=
